<?xml version="1.0" standalone="no"?>
<!DOCTYPE svg PUBLIC "-//W3C//DTD SVG 20010904//EN"
 "http://www.w3.org/TR/2001/REC-SVG-20010904/DTD/svg10.dtd">
<svg version="1.0" xmlns="http://www.w3.org/2000/svg"
 width="16.000000pt" height="16.000000pt" viewBox="0 0 16.000000 16.000000"
 preserveAspectRatio="xMidYMid meet">
<metadata>
Created by potrace 1.11, written by Peter Selinger 2001-2013
</metadata>
<g transform="translate(0.000000,16.000000) scale(0.000953,-0.000953)"
fill="#000000" stroke="none">
<path d="M7182 14832 c2 -10 11 -16 21 -14 9 2 17 -2 17 -8 0 -6 -4 -9 -9 -6
-5 3 -12 -1 -15 -10 -11 -29 -6 -44 14 -44 11 0 20 -4 20 -10 0 -5 -7 -10 -15
-10 -8 0 -15 -9 -15 -20 0 -14 7 -20 24 -20 13 0 29 -7 36 -15 11 -13 8 -14
-19 -9 -27 6 -31 4 -31 -16 0 -18 4 -21 25 -18 13 3 22 1 19 -3 -5 -8 26 -14
49 -10 5 1 5 -4 1 -10 -4 -7 -21 -9 -45 -5 -34 5 -39 4 -39 -13 0 -19 25 -31
67 -31 12 0 25 -5 29 -11 5 -9 -6 -10 -40 -5 -42 7 -46 5 -46 -13 0 -15 9 -21
38 -26 20 -4 51 -9 67 -13 17 -3 35 -5 40 -3 6 1 5 -2 -1 -9 -8 -8 -23 -8 -55
-1 -64 15 -79 14 -79 -7 0 -15 16 -22 75 -36 41 -10 77 -22 81 -27 7 -13 -12
-11 -76 6 -69 18 -70 18 -70 -1 0 -20 66 -47 106 -42 18 2 31 1 28 -3 -2 -4 8
-12 23 -17 43 -16 2 -14 -73 3 -36 9 -68 14 -71 11 -3 -2 0 -13 6 -24 11 -21
16 -22 124 -43 37 -7 67 -16 67 -21 0 -10 9 -11 -83 7 -99 19 -97 19 -97 -4 0
-16 11 -22 58 -31 132 -27 156 -33 145 -37 -7 -2 -50 3 -96 11 -102 19 -97 19
-97 1 0 -19 26 -29 115 -44 108 -18 125 -22 125 -31 0 -4 -9 -10 -20 -13 -11
-3 -18 -2 -15 3 4 6 -146 40 -177 40 -5 0 -8 -9 -8 -20 0 -11 2 -20 4 -20 14
0 251 -51 254 -55 11 -11 -58 -4 -147 15 -52 11 -96 18 -98 16 -9 -9 11 -37
24 -32 8 3 11 1 8 -4 -3 -6 -4 -10 0 -10 21 0 241 -52 248 -59 10 -10 -52 1
-161 28 -102 26 -105 26 -96 -1 3 -13 8 -24 9 -26 1 -1 43 -9 92 -17 142 -23
191 -35 196 -49 4 -10 -30 -6 -126 15 -144 31 -157 33 -157 22 1 -24 29 -35
145 -58 122 -24 183 -41 174 -49 -5 -5 -141 19 -215 38 -83 22 -90 21 -72 -6
11 -17 33 -25 84 -35 91 -17 235 -55 230 -61 -3 -2 -69 8 -146 23 -78 15 -144
25 -146 22 -2 -2 -2 -11 1 -19 6 -16 179 -53 197 -42 6 4 8 3 5 -4 -5 -6 18
-14 63 -22 38 -6 73 -16 76 -22 4 -6 -1 -8 -12 -5 -52 16 -297 57 -303 52 -16
-17 50 -52 120 -63 179 -30 205 -35 219 -43 25 -14 -4 -11 -159 17 -79 14
-145 23 -147 21 -2 -2 2 -11 9 -20 8 -11 62 -26 164 -47 84 -17 163 -35 175
-40 44 -17 -9 -10 -158 20 -80 17 -148 29 -151 26 -10 -9 19 -46 40 -51 36 -8
301 -56 319 -58 12 -1 14 -5 8 -11 -6 -6 -66 2 -166 23 -86 17 -158 30 -160
28 -2 -2 5 -12 16 -22 12 -11 78 -30 175 -50 86 -18 159 -36 162 -39 11 -10
-15 -7 -155 20 -73 14 -137 23 -140 19 -3 -3 3 -15 14 -26 15 -15 60 -28 169
-49 81 -16 150 -32 153 -35 9 -9 -10 -6 -142 21 -70 14 -130 23 -134 20 -3 -4
4 -16 15 -27 15 -16 59 -29 164 -50 131 -27 175 -39 138 -39 -8 0 -66 9 -128
21 -62 11 -115 18 -117 16 -13 -13 61 -41 168 -62 67 -14 127 -30 132 -35 15
-15 -8 -13 -113 10 -52 12 -95 19 -97 17 -2 -2 6 -13 19 -25 15 -15 55 -28
122 -42 55 -11 104 -25 109 -30 14 -14 -9 -13 -74 5 -69 19 -75 19 -59 -1 19
-23 57 -40 118 -53 50 -11 57 -9 107 15 47 23 54 30 47 48 -4 11 -6 38 -5 59
2 21 -2 46 -7 55 -9 15 -11 14 -19 -7 -13 -36 -24 -9 -11 28 12 33 4 105 -10
96 -5 -2 -11 -18 -15 -35 -3 -17 -10 -29 -15 -26 -6 4 -1 30 10 65 16 46 18
64 9 86 -13 34 -15 32 -40 -36 -18 -50 -19 -51 -13 -14 3 22 12 55 20 72 13
33 8 123 -7 106 -3 -4 -15 -36 -25 -70 -10 -34 -24 -64 -31 -67 -9 -4 -9 4 3
31 8 20 12 44 10 55 -3 10 -2 16 3 13 10 -6 23 43 14 57 -4 7 -3 8 4 4 14 -8
15 28 2 59 -7 18 -8 19 -15 3 -4 -10 -4 -25 -1 -34 4 -10 2 -13 -6 -8 -7 5 -9
0 -6 -14 4 -14 2 -20 -5 -15 -6 4 -8 -2 -5 -15 4 -14 2 -20 -5 -15 -6 4 -8 -2
-5 -15 4 -12 2 -20 -3 -16 -5 3 -9 1 -9 -4 0 -6 -6 -12 -14 -15 -10 -4 -7 14
11 71 13 42 22 85 19 95 -2 9 0 15 4 12 15 -9 21 31 10 61 -14 37 -21 27 -51
-83 -12 -46 -26 -83 -32 -83 -5 0 -6 8 -2 18 3 9 18 55 32 102 14 47 27 92 29
100 3 8 -1 24 -9 34 -14 18 -17 13 -41 -65 -27 -87 -46 -128 -46 -99 0 8 14
58 30 110 31 99 37 135 20 125 -6 -3 -7 1 -4 9 3 9 1 16 -5 16 -6 0 -25 -47
-42 -105 -18 -58 -36 -102 -41 -97 -4 4 1 35 12 67 11 33 18 65 15 73 -2 7 -1
10 4 7 12 -7 24 31 15 46 -4 8 -3 9 4 5 8 -5 12 0 12 13 0 32 -1 36 -10 34 -4
-1 -6 8 -3 20 4 17 3 19 -6 11 -7 -6 -13 -27 -14 -47 -1 -19 -6 -32 -11 -29
-5 3 -7 -5 -4 -16 4 -12 2 -20 -2 -17 -5 3 -16 -19 -26 -47 -10 -29 -19 -46
-21 -38 -2 8 12 62 32 119 28 85 32 107 23 125 -11 20 -12 20 -26 -14 -8 -19
-15 -49 -16 -67 -1 -17 -4 -29 -7 -27 -4 2 -12 -17 -19 -41 -7 -25 -17 -45
-21 -45 -12 0 -11 11 6 61 9 24 14 52 11 62 -2 9 -1 15 3 12 5 -2 15 21 24 53
14 50 14 59 1 72 -20 20 -26 9 -54 -99 -12 -47 -27 -90 -33 -96 -11 -11 -12
-14 28 133 25 92 27 105 13 118 -14 14 -18 6 -42 -69 -14 -47 -26 -92 -26
-101 0 -16 -11 -21 -22 -10 -4 3 10 53 29 111 32 93 34 107 20 120 -13 13 -18
6 -41 -64 -33 -99 -42 -113 -48 -79 -3 14 -1 23 3 20 5 -2 15 21 24 53 9 32
20 70 25 85 6 19 5 30 -5 38 -20 16 -38 2 -32 -26 2 -14 0 -21 -6 -17 -6 4 -8
-2 -4 -16 3 -13 3 -20 -1 -16 -4 3 -14 -15 -23 -42 -16 -48 -16 -48 -29 -23
-7 14 -9 22 -4 17 10 -9 56 113 49 131 -3 7 0 10 5 7 15 -9 12 21 -4 34 -11 9
-19 -4 -43 -71 -28 -77 -31 -81 -43 -59 -7 13 -7 21 -1 17 6 -4 14 11 21 36 6
24 15 53 20 66 12 29 13 45 1 38 -5 -3 -8 0 -7 7 0 6 -3 13 -9 15 -5 2 -19
-25 -30 -60 -21 -70 -23 -73 -30 -66 -3 2 6 38 20 79 24 69 24 75 8 86 -21 16
-28 6 -44 -64 -14 -63 -25 -69 -24 -14 0 21 4 37 9 33 5 -3 7 5 4 16 -4 12 -2
20 2 17 17 -11 22 37 6 54 -15 14 -18 14 -27 1 -5 -8 -8 -25 -6 -37 2 -12 0
-20 -5 -17 -4 3 -11 -9 -14 -26 -4 -17 -9 -28 -13 -25 -10 10 -7 64 3 57 5 -3
7 5 4 16 -4 14 -2 20 5 15 6 -4 8 2 5 15 -4 12 -2 20 3 16 15 -9 10 12 -5 25
-16 14 -19 11 -35 -41 -7 -21 -17 -38 -22 -38 -12 0 -12 -2 7 54 15 44 15 49
1 64 -17 16 -16 18 -43 -57 -10 -31 -12 -3 -2 38 9 35 8 45 -5 58 -14 15 -16
14 -23 -13 -9 -38 -14 -45 -24 -39 -5 3 -4 21 1 41 8 26 7 39 -2 50 -11 13
-14 12 -26 -10 -19 -35 -23 -33 -12 6 5 18 9 33 9 34 0 9 -41 9 -51 0 -9 -8
-11 -6 -6 11 6 27 -14 46 -38 36 -14 -5 -17 -3 -12 10 6 16 -5 29 -36 40 -14
5 -18 3 -15 -11z m845 -952 c-14 -37 -19 -33 -11 8 4 18 10 29 14 27 5 -3 3
-18 -3 -35z"/>
<path d="M9572 14834 c-12 -8 -22 -22 -22 -31 0 -9 -6 -13 -14 -10 -18 7 -40
-18 -33 -37 8 -21 -4 -28 -18 -9 -19 26 -36 6 -30 -35 5 -35 4 -35 -6 -9 -12
31 -21 34 -39 12 -10 -12 -11 -24 -2 -50 6 -20 6 -35 1 -35 -5 0 -9 8 -9 18 0
9 -5 24 -10 32 -8 13 -11 13 -25 -1 -12 -12 -13 -21 -4 -47 6 -17 9 -39 7 -49
-3 -12 -9 -3 -17 25 -12 44 -21 51 -40 28 -9 -11 -8 -23 5 -55 9 -22 14 -46
12 -53 -3 -7 -11 5 -18 27 -16 52 -22 58 -44 42 -18 -13 -18 -16 -2 -65 10
-29 16 -57 14 -63 -2 -6 -12 14 -21 45 -10 31 -22 56 -27 56 -19 0 -21 -23 -5
-86 20 -81 15 -93 -9 -19 -19 62 -28 71 -46 50 -11 -13 -8 -29 12 -91 13 -41
21 -77 18 -79 -4 -3 -17 29 -29 70 -23 78 -33 88 -51 56 -8 -15 -5 -33 9 -73
23 -63 37 -126 25 -115 -4 4 -17 40 -29 80 -13 48 -25 72 -35 72 -23 0 -23
-26 3 -119 14 -47 21 -88 18 -91 -4 -2 -18 32 -31 76 -25 86 -31 96 -50 74 -9
-11 -10 -22 -1 -42 21 -51 49 -163 41 -168 -3 -2 -18 35 -32 83 -25 87 -34 99
-52 69 -7 -11 -2 -38 16 -94 39 -116 40 -123 29 -123 -5 0 -22 39 -36 88 -31
99 -37 109 -55 87 -12 -14 -9 -31 18 -114 18 -53 32 -106 32 -117 -1 -10 -15
26 -33 81 -18 55 -37 99 -42 99 -28 -4 -26 -35 8 -139 19 -60 33 -114 29 -120
-3 -5 -19 33 -35 85 -41 137 -35 126 -54 107 -17 -17 -19 -10 42 -209 8 -27
11 -48 7 -48 -4 0 -20 45 -36 100 -16 55 -32 103 -37 106 -5 3 -14 -5 -20 -18
-8 -19 -4 -46 24 -138 19 -63 32 -119 29 -125 -4 -5 -19 33 -35 85 -16 52 -31
102 -33 110 -9 26 -36 -21 -30 -50 3 -14 8 -36 11 -50 5 -21 4 -20 -8 5 l-14
30 -13 -27 c-11 -24 -10 -38 13 -105 38 -117 42 -162 4 -55 -18 52 -37 93 -42
93 -21 -1 -15 -75 10 -152 15 -43 25 -84 23 -90 -2 -6 -15 23 -28 65 -13 43
-27 79 -31 82 -5 2 -13 -5 -19 -16 -9 -17 -6 -37 14 -98 14 -42 26 -86 25 -97
-1 -11 -11 10 -23 47 -27 81 -33 89 -42 52 -4 -17 1 -58 13 -106 11 -43 17
-81 13 -83 -4 -3 -13 17 -20 43 -16 60 -27 72 -36 38 -6 -24 5 -84 22 -130 3
-9 2 -16 -4 -16 -5 0 -12 14 -16 32 -5 25 -9 29 -18 20 -14 -14 -16 -76 -4
-112 8 -24 7 -24 -7 -5 -15 20 -16 19 -22 -8 -4 -15 -5 -38 -1 -50 3 -14 -1
-32 -9 -43 -8 -10 -15 -22 -15 -25 0 -4 25 -19 56 -34 l55 -27 66 16 c61 16
130 52 120 63 -3 2 -35 -3 -71 -12 -79 -18 -94 -19 -80 -5 5 5 54 19 109 30
76 16 106 27 125 45 30 30 24 30 -82 5 -94 -23 -117 -25 -102 -10 5 5 66 21
134 35 86 18 131 32 145 45 24 25 20 25 -107 0 -57 -11 -109 -20 -117 -20 -33
0 2 11 114 34 66 14 129 28 140 31 24 6 70 43 63 51 -3 3 -67 -7 -143 -21 -75
-15 -139 -24 -142 -21 -3 2 12 8 33 12 232 42 277 53 297 73 11 11 18 23 15
26 -3 4 -70 -5 -148 -20 -78 -14 -148 -24 -154 -21 -6 2 -6 5 -1 5 6 1 81 16
169 35 143 31 202 53 184 71 -3 4 -71 -7 -150 -24 -154 -33 -178 -36 -162 -22
7 8 274 61 303 61 14 0 65 49 58 56 -3 3 -73 -8 -156 -26 -83 -17 -157 -30
-163 -27 -14 4 32 16 211 52 102 21 155 44 139 61 -3 3 -70 -6 -148 -21 -77
-14 -146 -24 -153 -22 -14 5 105 31 217 48 55 9 87 19 105 35 14 12 23 25 20
29 -8 7 -222 -30 -303 -52 -11 -3 -16 -1 -12 5 3 5 23 13 43 16 21 3 92 18
158 33 111 24 158 44 143 59 -4 3 -68 -6 -144 -20 -75 -14 -144 -26 -153 -25
-25 1 73 28 193 53 72 14 113 28 120 39 16 25 2 30 -45 17 -77 -21 -239 -48
-239 -40 0 9 92 32 205 51 80 13 105 24 105 44 0 19 6 19 -134 -10 -66 -14
-127 -24 -135 -22 -29 7 39 27 157 48 63 10 118 22 123 25 10 6 13 44 3 44 -3
0 -51 -11 -106 -26 -55 -14 -113 -24 -127 -22 -14 2 33 16 104 32 134 29 155
38 155 63 0 11 -7 14 -22 11 -140 -30 -190 -39 -205 -36 -16 4 39 18 185 49
48 10 74 30 59 46 -6 5 -181 -22 -214 -34 -13 -4 -15 -3 -7 6 6 6 51 18 100
26 129 22 131 23 137 45 6 24 9 24 -90 5 -43 -8 -87 -15 -97 -15 -38 0 -8 10
75 25 100 18 129 29 129 50 0 19 -6 19 -103 0 -93 -18 -94 -18 -81 -6 5 5 47
17 92 25 97 18 102 21 102 47 0 23 -6 23 -85 4 -33 -8 -64 -14 -70 -14 -20 1
51 28 76 29 39 0 87 19 93 37 10 24 3 25 -62 9 -68 -18 -82 -19 -82 -8 0 4 33
16 73 26 67 17 86 28 87 50 0 8 -55 3 -109 -11 -16 -4 -22 -2 -17 5 3 6 28 14
54 18 58 8 82 20 82 40 0 13 -9 15 -52 9 -38 -4 -49 -3 -38 4 8 6 25 11 38 11
32 0 62 18 62 36 0 13 -8 14 -40 9 -54 -9 -51 9 2 21 30 6 44 15 46 28 4 16 0
18 -27 13 -41 -9 -40 10 1 21 40 10 50 39 16 44 -23 4 -22 5 5 16 26 11 38 42
16 42 -5 0 -3 10 5 22 28 39 17 50 -22 22z m-335 -316 c-3 -8 -6 -5 -6 6 -1
11 2 17 5 13 3 -3 4 -12 1 -19z m-403 -730 c3 -16 3 -28 -2 -28 -8 0 -43 109
-41 127 1 12 36 -68 43 -99z"/>
<path d="M2735 13549 c-332 -14 -758 -48 -980 -79 -326 -46 -807 -162 -790
-191 4 -5 0 -6 -8 -3 -15 5 -166 -53 -219 -84 -15 -9 -24 -20 -21 -25 3 -6 1
-7 -5 -3 -16 9 -113 -44 -105 -57 4 -6 1 -7 -6 -3 -16 10 -94 -41 -85 -56 4
-6 3 -8 -3 -5 -14 9 -55 -22 -47 -35 4 -6 3 -8 -3 -5 -14 9 -55 -22 -47 -35 4
-6 3 -8 -3 -5 -14 9 -55 -22 -47 -35 4 -6 3 -8 -3 -5 -14 9 -55 -22 -47 -35 4
-6 3 -8 -3 -5 -13 8 -56 -37 -46 -48 5 -4 3 -5 -4 -1 -14 8 -45 -33 -36 -47 3
-6 1 -7 -5 -3 -13 8 -44 -33 -35 -47 3 -6 1 -7 -5 -3 -6 3 -20 -6 -31 -22 -41
-59 -141 -263 -141 -289 0 -27 3 -25 61 34 33 35 58 67 54 73 -4 6 -2 9 3 8 5
-2 39 29 75 68 36 39 98 97 136 129 39 31 68 61 65 66 -3 5 1 7 8 4 16 -6 180
99 170 109 -3 4 1 4 10 1 20 -8 142 57 131 70 -5 4 -2 5 5 1 7 -4 55 9 107 28
119 45 382 111 500 125 50 7 126 18 170 26 69 12 369 32 740 49 61 3 344 8
630 12 468 6 553 4 855 -15 351 -23 865 -81 1122 -128 165 -30 178 -34 159
-57 -7 -8 -9 -21 -5 -27 4 -7 3 -9 -3 -6 -13 8 -82 -95 -114 -168 -58 -134
-70 -193 -76 -360 -6 -177 6 -263 51 -374 26 -63 102 -164 118 -155 4 3 7 0 6
-6 -5 -20 88 -77 142 -89 28 -6 91 -11 140 -11 l89 0 16 55 c22 78 35 151 35
202 0 80 -65 233 -92 217 -6 -4 -8 -3 -5 3 10 16 -89 107 -108 99 -9 -3 -14
-2 -10 3 8 13 -85 31 -160 31 l-65 0 0 40 c0 64 20 141 56 210 53 103 117 162
246 226 42 21 75 41 72 46 -3 4 2 5 10 2 8 -3 23 -1 33 4 14 8 62 0 185 -28
212 -50 682 -180 772 -214 39 -15 76 -24 84 -21 7 2 11 1 8 -4 -10 -16 395
-157 415 -145 7 4 9 3 5 -4 -8 -13 298 -117 315 -106 8 4 9 3 5 -4 -10 -17
539 -195 576 -187 16 4 26 10 23 15 -3 4 4 6 16 3 11 -3 57 1 102 10 45 9 118
24 162 32 182 36 498 36 680 0 44 -8 116 -22 160 -31 44 -8 99 -20 121 -25 35
-9 53 -7 112 12 39 12 69 26 66 30 -2 4 4 5 14 3 20 -6 731 235 1069 361 40
15 70 31 67 36 -3 5 1 6 8 4 8 -3 43 5 79 19 85 32 565 164 782 214 l169 40
96 -45 c120 -55 181 -96 216 -145 15 -21 32 -35 38 -32 7 5 8 2 4 -5 -5 -7 -1
-20 7 -29 40 -45 61 -108 65 -193 l4 -86 -88 -6 c-132 -8 -160 -19 -229 -90
-83 -86 -105 -135 -112 -250 -5 -81 -2 -103 22 -181 l27 -88 111 5 c149 6 191
22 273 104 43 41 64 69 60 79 -3 8 -2 12 4 9 15 -9 36 33 64 128 37 121 46
306 22 433 -22 115 -62 239 -91 284 -108 167 -114 179 -97 184 62 18 346 61
622 95 427 53 876 81 1293 81 559 0 1425 -35 1592 -65 44 -8 121 -19 170 -26
100 -12 374 -78 460 -110 30 -11 60 -17 66 -13 7 4 9 3 5 -4 -4 -6 16 -19 50
-32 31 -11 76 -32 100 -46 25 -14 51 -23 60 -20 8 3 13 2 10 -3 -3 -5 1 -11 9
-15 8 -3 60 -37 115 -76 56 -39 106 -68 111 -64 5 3 8 2 7 -3 -3 -10 144 -159
154 -155 5 1 7 -2 5 -7 -2 -10 163 -194 169 -188 2 2 -4 27 -14 56 -10 29 -21
49 -25 44 -5 -4 -5 0 -2 10 12 30 -116 234 -137 220 -7 -4 -8 -1 -4 6 10 15
-23 53 -37 44 -5 -3 -7 -2 -4 4 9 14 -22 55 -35 47 -6 -4 -8 -3 -5 3 8 13 -77
96 -88 86 -4 -5 -5 -3 -1 4 8 14 -33 45 -47 36 -6 -3 -7 -1 -3 5 8 13 -33 44
-47 35 -6 -3 -7 -1 -3 5 8 13 -33 44 -47 35 -6 -3 -7 -1 -3 5 9 15 -69 66 -85
56 -7 -4 -10 -3 -6 3 12 20 -258 147 -453 214 -46 16 -178 50 -293 74 -365 79
-582 105 -1282 150 -211 13 -771 17 -1020 6 -332 -14 -728 -45 -935 -72 -180
-23 -777 -120 -930 -150 -339 -67 -1136 -290 -1115 -311 4 -4 -3 -4 -16 -1
-17 5 -20 3 -14 -7 5 -9 4 -11 -4 -6 -18 11 -63 -2 -55 -16 4 -7 3 -8 -4 -4
-16 10 -63 -4 -55 -17 3 -6 1 -7 -6 -3 -18 11 -63 -2 -55 -16 4 -7 3 -8 -4 -4
-16 10 -63 -4 -55 -17 3 -6 1 -7 -6 -3 -18 11 -63 -2 -55 -16 4 -7 3 -8 -4 -4
-16 10 -63 -4 -55 -17 3 -6 1 -7 -6 -3 -16 10 -63 -2 -56 -14 3 -5 0 -7 -8 -4
-8 3 -176 -56 -374 -130 l-361 -135 -133 19 c-333 47 -555 47 -873 0 l-129
-19 -276 103 c-408 153 -481 178 -497 172 -10 -4 -12 -2 -8 6 5 7 0 9 -14 6
-12 -4 -20 -2 -17 3 8 11 -40 23 -56 13 -7 -4 -9 -3 -6 3 8 13 -39 27 -55 17
-6 -4 -8 -3 -5 3 8 13 -39 27 -55 17 -7 -4 -8 -3 -4 4 8 14 -37 27 -55 16 -7
-4 -9 -3 -6 3 8 13 -39 27 -55 17 -6 -4 -8 -3 -5 3 8 13 -39 27 -55 17 -7 -4
-8 -3 -4 4 8 14 -37 27 -55 16 -8 -4 -9 -3 -5 4 8 14 -37 27 -55 16 -7 -4 -9
-3 -6 3 8 13 -39 27 -55 17 -7 -4 -8 -3 -4 4 8 14 -37 27 -55 16 -8 -5 -9 -3
-4 6 6 10 3 12 -13 8 -12 -4 -20 -3 -17 1 10 17 -597 175 -900 235 -178 35
-782 132 -935 151 -522 62 -1232 87 -1815 64z m282 -5 c-3 -3 -12 -4 -19 -1
-8 3 -5 6 6 6 11 1 17 -2 13 -5z m-280 -10 c-3 -3 -12 -4 -19 -1 -8 3 -5 6 6
6 11 1 17 -2 13 -5z m11330 0 c-3 -3 -12 -4 -19 -1 -8 3 -5 6 6 6 11 1 17 -2
13 -5z m-8941 -1219 c127 -63 192 -198 168 -347 -6 -35 -8 -37 -38 -32 -17 3
-50 12 -73 20 -24 9 -48 12 -55 8 -7 -4 -10 -3 -5 1 4 5 -17 25 -45 46 -91 64
-148 192 -131 294 l6 35 61 0 c46 0 75 -6 112 -25z m6716 -44 c2 -38 0 -67 -4
-65 -3 2 -12 -20 -19 -49 -10 -44 -22 -62 -77 -114 -36 -35 -69 -63 -74 -63
-5 0 -28 -8 -51 -19 -23 -10 -61 -21 -84 -24 l-42 -5 -6 52 c-12 90 35 227 97
282 52 48 119 74 190 74 l66 0 4 -69z"/>
<path d="M8254 13045 c-94 -28 -217 -92 -207 -107 4 -7 1 -8 -6 -4 -17 11
-230 -138 -218 -151 3 -2 102 10 220 27 286 40 412 40 692 0 116 -16 217 -30
225 -29 9 0 -1 14 -25 35 -21 19 -45 32 -53 29 -7 -2 -10 -1 -7 5 7 12 -32 33
-47 24 -7 -4 -8 -3 -4 4 16 26 -154 122 -292 166 -103 32 -171 33 -278 1z"/>
<path d="M2260 13034 c-525 -23 -794 -46 -990 -85 -84 -16 -380 -98 -409 -113
-14 -7 -50 -21 -79 -30 -28 -10 -50 -22 -47 -27 4 -5 -1 -6 -9 -3 -14 5 -140
-67 -240 -136 -81 -57 -206 -172 -199 -183 3 -5 1 -7 -4 -4 -14 9 -86 -80 -77
-94 4 -7 3 -9 -4 -5 -11 7 -149 -140 -144 -155 1 -5 -3 -8 -10 -7 -6 2 -18 -9
-27 -24 -14 -24 -14 -31 2 -82 10 -31 22 -54 27 -51 4 3 6 -5 2 -17 -3 -14 -1
-19 6 -14 8 4 10 2 6 -8 -7 -19 64 -128 79 -119 6 3 7 1 3 -5 -8 -13 58 -114
99 -152 15 -14 49 -53 77 -88 27 -34 55 -59 60 -55 6 3 8 2 5 -4 -7 -11 142
-150 156 -145 5 1 6 -2 3 -7 -8 -12 153 -143 166 -134 6 3 8 1 4 -5 -8 -13 43
-54 57 -45 5 3 7 1 4 -4 -9 -14 102 -105 116 -96 5 3 7 1 3 -5 -8 -13 33 -44
47 -35 6 3 7 1 3 -5 -8 -13 33 -44 47 -35 6 3 7 1 3 -5 -8 -13 33 -44 47 -35
6 3 7 1 3 -5 -8 -13 33 -44 47 -35 6 3 7 1 3 -5 -8 -13 33 -44 47 -35 6 3 7 1
3 -5 -8 -13 33 -44 47 -35 6 3 7 1 3 -5 -8 -13 33 -44 47 -35 6 3 7 2 4 -4 -9
-14 150 -146 165 -137 6 4 8 3 5 -3 -9 -14 230 -206 245 -197 6 4 8 3 5 -3 -9
-14 120 -116 135 -107 6 4 8 3 5 -3 -9 -14 120 -116 135 -107 6 4 8 3 4 -4 -8
-13 43 -54 57 -45 5 3 7 1 3 -5 -7 -12 42 -54 55 -46 5 3 8 2 7 -3 -4 -11 334
-349 345 -345 5 1 6 -2 3 -7 -8 -13 114 -142 127 -134 7 3 8 2 4 -2 -10 -11
133 -156 146 -148 6 3 7 1 4 -4 -9 -14 90 -106 105 -97 6 4 8 3 4 -4 -7 -12
42 -54 55 -46 5 3 8 0 7 -7 -4 -15 118 -104 251 -184 53 -32 158 -98 234 -147
77 -51 142 -86 149 -82 7 4 8 3 4 -5 -9 -14 120 -75 141 -66 8 2 12 1 8 -4 -6
-10 35 -25 200 -70 161 -44 230 -53 430 -54 305 0 506 27 800 109 275 77 399
120 389 136 -5 7 -2 8 5 4 16 -10 73 13 64 27 -4 6 -1 7 6 3 16 -10 73 13 64
27 -4 6 -1 7 6 3 15 -10 73 13 65 25 -3 5 1 6 9 3 21 -8 240 104 231 118 -4 7
-3 8 4 4 16 -10 294 133 286 146 -4 7 -2 8 4 4 16 -9 133 54 125 67 -3 6 -1 7
5 3 16 -10 94 32 86 46 -4 7 -3 8 4 4 20 -12 346 189 335 207 -3 6 -1 7 5 3
15 -9 133 74 125 87 -3 6 -1 7 6 3 15 -10 113 62 104 76 -3 7 -1 8 6 4 14 -9
103 63 94 77 -3 5 -1 7 4 4 14 -9 65 32 57 45 -4 6 -3 8 3 5 10 -6 162 146
244 246 63 75 183 283 175 303 -3 8 -2 13 3 10 12 -8 35 50 25 65 -4 7 -3 10
4 5 6 -4 17 14 27 44 13 40 15 60 6 102 -5 29 -13 76 -16 103 -4 28 -21 131
-40 230 -18 99 -41 227 -50 284 -24 144 -64 257 -120 335 -77 108 -270 277
-297 260 -6 -4 -8 -3 -5 3 9 14 -80 76 -95 67 -6 -4 -8 -3 -5 3 9 14 -80 76
-95 67 -6 -4 -8 -3 -5 3 9 14 -80 76 -95 67 -6 -4 -8 -3 -4 4 8 14 -50 55 -65
46 -7 -4 -9 -3 -6 3 8 13 -150 126 -165 117 -6 -4 -8 -3 -5 3 3 5 -22 30 -57
56 -51 36 -94 55 -211 92 -81 25 -154 44 -162 41 -8 -3 -12 -2 -9 3 7 11 -41
24 -56 15 -6 -4 -8 -3 -5 3 9 15 -199 75 -513 148 l-154 37 -48 -23 c-26 -12
-45 -25 -43 -30 3 -4 -4 -5 -15 -2 -14 4 -34 -10 -75 -52 -30 -32 -55 -60 -55
-64 0 -3 34 -21 76 -40 131 -59 234 -167 287 -300 24 -62 31 -97 36 -188 3
-61 3 -109 0 -107 -9 5 -30 -116 -22 -129 3 -6 1 -7 -5 -3 -7 4 -22 -29 -42
-94 -17 -55 -34 -101 -38 -101 -35 -6 -369 -12 -366 -7 6 10 -54 21 -67 12 -7
-4 -9 -3 -6 3 4 6 -5 14 -19 17 -40 10 -170 102 -200 141 -14 19 -31 32 -37
28 -5 -3 -7 -2 -4 4 9 14 -22 55 -35 47 -6 -4 -8 -2 -5 3 8 13 -77 196 -86
187 -3 -3 -3 4 0 17 4 12 2 20 -3 17 -5 -4 -9 8 -10 25 -1 18 -7 95 -14 172
-13 138 -13 142 14 287 15 81 24 152 20 159 -5 8 -3 9 6 4 10 -6 12 -3 8 13
-4 12 -3 20 2 17 8 -5 54 105 46 112 -2 2 -68 15 -147 28 -216 37 -710 84
-1009 95 -346 13 -952 10 -1310 -6z m1077 0 c-3 -3 -12 -4 -19 -1 -8 3 -5 6 6
6 11 1 17 -2 13 -5z"/>
<path d="M13168 13039 c-249 -10 -744 -58 -961 -93 -82 -14 -151 -27 -153 -29
-3 -2 4 -20 15 -38 11 -19 34 -88 52 -154 32 -117 32 -126 33 -332 1 -116 -2
-209 -6 -207 -4 3 -10 -8 -14 -23 -18 -82 -29 -113 -60 -176 -19 -37 -32 -73
-28 -79 4 -6 3 -8 -3 -5 -6 4 -32 -21 -58 -54 -60 -76 -158 -142 -258 -174
-66 -21 -97 -25 -206 -25 -71 0 -149 3 -173 6 l-46 6 -35 97 c-75 202 -90 314
-57 440 24 94 53 157 99 215 17 21 31 42 31 46 0 15 105 84 183 120 l79 37
-57 62 c-32 33 -62 61 -69 61 -6 0 -33 12 -60 26 l-48 26 -122 -27 c-222 -48
-497 -126 -806 -227 -91 -30 -141 -53 -187 -86 -34 -25 -59 -50 -56 -55 3 -6
1 -7 -5 -3 -15 9 -173 -104 -165 -117 3 -6 1 -7 -6 -3 -15 9 -73 -32 -65 -46
4 -7 2 -8 -4 -4 -14 9 -314 -192 -307 -205 4 -5 0 -6 -7 -4 -16 6 -173 -129
-245 -211 -67 -75 -114 -172 -146 -299 -31 -123 -71 -369 -64 -395 3 -12 1
-18 -5 -14 -7 4 -9 -6 -6 -29 2 -20 0 -33 -5 -30 -6 3 -8 -10 -5 -30 2 -20 0
-33 -5 -30 -6 3 -8 -10 -5 -30 2 -20 1 -34 -3 -32 -3 2 -12 -34 -18 -80 -11
-74 -11 -90 4 -135 10 -30 21 -48 27 -44 7 5 8 2 4 -5 -10 -15 13 -73 25 -65
5 3 6 -2 3 -10 -4 -9 21 -62 60 -129 83 -144 124 -200 138 -191 6 4 8 3 5 -3
-9 -14 32 -65 44 -57 5 3 8 2 7 -3 -5 -14 93 -123 105 -116 5 3 7 1 3 -5 -8
-13 43 -54 57 -45 5 3 7 1 3 -5 -8 -13 114 -124 131 -118 7 3 12 1 10 -3 -3
-13 122 -103 134 -96 5 4 8 1 7 -6 -4 -15 133 -110 150 -104 7 3 11 1 8 -4 -8
-13 141 -104 155 -95 8 4 9 3 5 -4 -8 -14 30 -36 46 -26 6 4 8 3 5 -4 -14 -22
838 -470 870 -458 8 3 12 2 9 -3 -8 -12 70 -45 85 -36 7 5 10 4 6 -2 -9 -14
48 -37 64 -27 7 4 10 3 6 -3 -4 -6 1 -14 11 -18 122 -50 493 -154 657 -184
234 -43 594 -58 770 -32 133 20 399 96 390 112 -4 5 0 6 8 3 21 -8 140 54 131
68 -4 6 -3 8 4 4 14 -9 84 33 75 47 -3 5 -1 7 5 3 14 -9 84 33 75 47 -3 5 -1
7 5 3 11 -6 77 32 302 174 142 89 192 129 184 142 -4 6 -2 8 3 5 14 -9 65 32
57 45 -4 7 -2 8 4 4 15 -9 114 83 105 97 -3 5 -2 7 4 4 13 -8 156 137 146 148
-4 4 -3 5 3 2 15 -9 127 111 118 125 -4 6 -2 8 4 5 12 -8 65 51 56 64 -3 5 -2
8 3 7 14 -5 183 164 176 175 -3 6 -1 7 5 3 14 -8 124 93 115 107 -3 6 -1 7 5
3 15 -9 114 83 105 97 -3 6 -1 7 5 3 15 -9 124 73 115 87 -3 5 -1 7 5 3 14 -8
123 73 115 87 -4 6 -1 7 6 3 15 -10 53 23 44 37 -3 6 -1 7 5 3 15 -9 254 183
245 197 -3 6 -1 7 5 3 15 -9 174 123 165 137 -3 6 -2 7 4 4 14 -9 55 22 47 35
-4 6 -3 8 3 5 14 -9 55 22 47 35 -4 6 -3 8 3 5 14 -9 55 22 47 35 -4 6 -3 8 3
5 14 -9 55 22 47 35 -4 6 -3 8 3 5 14 -9 55 22 47 35 -4 6 -3 8 3 5 14 -9 55
22 47 35 -4 6 -3 8 3 5 14 -9 55 22 47 35 -4 7 -2 8 4 4 14 -9 174 133 165
146 -3 6 -1 8 5 5 13 -9 174 122 166 134 -3 5 -2 8 3 7 13 -4 163 133 160 146
-1 6 3 10 10 9 16 -3 85 76 77 89 -4 7 -3 8 4 4 15 -9 122 123 185 226 70 117
87 153 96 205 9 46 8 48 -31 93 -22 25 -45 44 -50 42 -5 -1 -7 2 -3 8 8 13
-85 111 -98 103 -6 -3 -7 -1 -3 5 9 14 -63 94 -77 85 -5 -3 -7 -2 -4 4 8 13
-67 86 -78 76 -4 -5 -5 -3 -2 4 9 14 -41 55 -56 46 -5 -3 -7 -1 -4 5 22 34
-392 266 -441 247 -7 -2 -11 -1 -7 4 8 14 -213 82 -373 116 -380 79 -1538 125
-2374 94z"/>
<path d="M7140 12256 c0 -12 133 -95 142 -90 6 4 8 3 5 -3 -8 -13 70 -76 83
-68 6 4 9 2 8 -3 -3 -9 161 -176 174 -177 3 0 10 -4 15 -9 5 -5 3 -6 -4 -2
-21 12 -16 1 35 -77 27 -41 54 -88 61 -105 7 -18 16 -30 20 -28 3 2 7 -6 7
-17 1 -12 18 -98 39 -192 21 -97 40 -219 45 -285 9 -123 27 -213 41 -204 5 3
6 -1 3 -9 -6 -18 57 -128 69 -120 6 3 7 1 3 -5 -8 -14 44 -113 56 -106 4 3 5
-1 3 -8 -3 -8 1 -33 10 -57 8 -23 22 -84 30 -134 13 -76 52 -239 81 -344 3
-13 10 -20 15 -17 5 3 6 -2 3 -10 -7 -20 36 -117 49 -109 6 4 7 1 2 -6 -9 -15
34 -113 46 -105 5 3 6 -2 3 -10 -7 -19 46 -117 59 -109 6 3 7 1 3 -5 -8 -13
34 -103 46 -96 4 3 5 -1 3 -9 -3 -7 5 -38 18 -68 13 -29 27 -67 31 -82 4 -15
11 -25 15 -22 5 3 7 -5 3 -17 -3 -14 -1 -19 6 -14 7 4 10 2 6 -7 -2 -7 0 -27
6 -43 10 -26 12 -27 22 -11 5 11 8 29 5 43 -2 13 -1 21 3 19 11 -7 22 43 14
58 -4 7 -4 9 1 5 11 -10 77 121 71 139 -3 8 -2 12 3 9 12 -8 55 90 46 105 -5
7 -4 10 2 6 12 -8 56 81 47 95 -4 6 -3 8 3 5 13 -8 66 90 59 109 -3 8 -2 13 3
10 12 -8 54 92 47 110 -4 10 -2 12 6 8 7 -5 9 0 6 14 -4 12 -2 20 2 17 8 -5
16 28 76 305 15 69 33 142 41 162 9 21 12 45 9 53 -3 9 -2 13 3 10 5 -3 13 5
16 17 4 13 28 56 53 97 25 40 45 86 46 101 1 16 4 26 7 24 10 -6 31 75 23 88
-4 6 -3 8 3 5 6 -4 12 27 16 82 8 106 50 348 78 444 11 37 17 72 13 79 -4 6
-3 8 3 5 12 -8 86 141 77 155 -4 7 -2 8 4 4 6 -4 29 18 54 51 24 32 53 66 66
76 12 10 20 23 16 28 -3 5 -2 8 3 7 14 -5 113 84 106 95 -3 6 -1 7 5 3 11 -7
208 131 200 140 -2 2 -102 -29 -222 -69 -119 -40 -214 -75 -211 -79 4 -4 -1
-5 -12 -2 -10 3 -45 -4 -77 -16 l-59 -20 -161 30 c-89 16 -192 37 -231 45 -81
17 -454 21 -520 5 -22 -5 -124 -25 -226 -44 l-187 -35 -173 54 c-96 30 -228
72 -294 95 -127 43 -125 42 -125 36z"/>
<path d="M7784 10537 c-3 -9 -2 -21 2 -28 4 -7 3 -9 -3 -6 -5 3 -21 -17 -34
-46 -13 -28 -59 -105 -102 -170 -42 -65 -74 -123 -71 -129 4 -6 3 -8 -4 -4
-12 7 -54 -42 -46 -55 3 -5 2 -9 -3 -7 -12 3 -249 -232 -245 -244 1 -5 -2 -7
-7 -4 -13 8 -112 -84 -104 -96 3 -7 1 -8 -5 -4 -6 4 -40 -15 -74 -41 -35 -26
-94 -68 -131 -92 -37 -24 -64 -48 -60 -54 3 -6 1 -7 -5 -3 -16 10 -54 -12 -46
-26 4 -7 3 -8 -4 -4 -7 4 -49 -17 -97 -48 -46 -30 -98 -62 -115 -71 -18 -9
-28 -21 -24 -27 4 -7 3 -8 -4 -4 -15 9 -135 -52 -127 -64 4 -6 -1 -7 -11 -3
-13 5 -15 3 -9 -7 5 -8 4 -11 -3 -6 -15 9 -115 -42 -107 -54 4 -6 -1 -7 -11
-3 -13 5 -15 3 -9 -7 5 -9 4 -11 -3 -6 -16 10 -94 -32 -86 -46 4 -7 3 -8 -4
-4 -15 9 -93 -34 -85 -47 3 -6 1 -7 -5 -3 -14 9 -175 -78 -164 -89 4 -4 1 -5
-6 -1 -17 10 -254 -103 -245 -117 3 -6 1 -7 -5 -3 -6 4 -37 -4 -69 -17 -32
-14 -75 -30 -96 -37 -22 -7 -34 -16 -31 -22 4 -7 2 -8 -5 -4 -16 10 -83 -13
-75 -26 4 -7 2 -8 -5 -4 -6 4 -53 -6 -104 -23 -136 -45 -366 -108 -417 -116
-25 -3 -90 -15 -145 -25 -281 -54 -695 -48 -914 12 -72 20 -75 20 -88 2 -7
-10 -11 -25 -8 -33 3 -9 3 -12 -1 -8 -11 10 -66 -81 -58 -95 4 -6 3 -8 -3 -5
-14 9 -67 -69 -57 -84 4 -8 3 -9 -4 -5 -8 5 -12 -5 -12 -34 0 -25 4 -39 10
-35 5 3 7 0 4 -8 -7 -18 64 -119 77 -111 5 3 8 2 7 -3 -3 -11 191 -200 199
-194 3 4 3 1 0 -5 -8 -14 77 -176 88 -167 4 5 5 2 1 -5 -10 -16 13 -74 25 -66
5 3 6 -2 3 -10 -8 -21 57 -124 114 -178 26 -25 88 -69 137 -98 50 -29 112 -68
138 -87 26 -18 53 -31 59 -27 6 4 8 3 5 -4 -9 -13 51 -64 65 -56 6 4 8 3 5 -3
-4 -6 12 -25 34 -43 23 -18 58 -59 78 -91 21 -33 41 -56 45 -52 4 4 4 0 1 -9
-7 -19 46 -127 76 -153 10 -10 29 -18 42 -19 14 0 23 -5 19 -10 -3 -5 5 -7 16
-4 12 4 20 2 17 -2 -3 -5 28 -13 67 -20 153 -24 502 -110 596 -147 37 -14 77
-26 89 -27 11 0 19 -4 17 -8 -6 -10 146 -70 162 -64 8 3 13 2 10 -3 -6 -9 36
-27 217 -92 107 -39 255 -68 437 -88 52 -6 142 -20 199 -31 57 -11 108 -17
114 -13 6 3 7 1 3 -5 -8 -14 37 -27 56 -16 7 4 10 4 6 -1 -10 -10 150 -107
163 -99 5 3 8 2 7 -3 -3 -11 104 -118 115 -115 5 1 6 -2 3 -7 -3 -5 1 -14 9
-21 8 -7 31 -43 52 -81 20 -37 40 -66 44 -63 4 2 5 -6 1 -18 -4 -16 -2 -19 8
-13 9 5 11 4 6 -4 -10 -16 13 -83 26 -75 6 4 8 3 5 -3 -3 -5 3 -58 13 -118 48
-263 5 -660 -110 -1018 -17 -53 -28 -102 -24 -109 4 -7 3 -8 -4 -4 -14 8 -27
-37 -16 -56 4 -7 4 -10 -1 -6 -10 9 -97 -172 -91 -189 3 -8 2 -12 -2 -9 -13 8
-156 -289 -147 -304 5 -8 4 -11 -2 -7 -13 8 -56 -89 -49 -109 4 -10 2 -12 -6
-8 -7 5 -9 0 -6 -14 4 -12 2 -20 -3 -17 -11 8 -23 -40 -13 -56 4 -7 3 -9 -3
-6 -13 8 -27 -39 -17 -55 4 -6 3 -8 -4 -5 -6 5 -13 -9 -17 -35 -4 -24 -14 -68
-22 -98 -34 -119 -26 -844 8 -866 5 -3 9 -13 9 -23 0 -9 18 -34 39 -55 22 -22
45 -52 52 -67 6 -16 15 -27 19 -24 5 3 6 -5 2 -17 -3 -12 -1 -19 5 -15 5 3 9
-2 9 -11 0 -47 5 -73 12 -68 4 2 6 -11 4 -31 -3 -20 -1 -33 5 -30 5 3 7 -9 5
-27 -2 -19 3 -46 11 -62 l15 -28 26 52 c22 43 27 68 29 136 1 46 5 82 10 79 4
-2 7 7 7 21 0 14 5 28 11 31 6 4 8 14 5 22 -3 8 -2 11 4 8 14 -8 112 136 106
157 -2 10 0 16 5 12 5 -3 9 10 9 28 0 18 7 70 15 116 15 86 41 134 91 167 14
9 22 21 18 27 -4 7 -3 8 4 4 14 -9 105 52 97 65 -3 5 1 6 10 3 22 -9 158 132
152 158 -3 10 -2 16 2 13 12 -7 65 111 56 125 -5 9 -4 11 3 6 7 -4 12 -6 12
-4 0 2 9 35 20 73 11 39 30 133 42 210 21 133 22 174 23 850 2 672 9 933 36
1190 19 187 70 449 120 624 27 96 47 181 45 188 -3 8 -1 11 4 8 12 -7 24 40
14 56 -4 8 -3 9 4 5 14 -8 27 37 16 55 -4 7 -3 10 3 6 12 -8 47 88 37 104 -4
7 -3 9 3 6 13 -8 87 188 77 204 -4 7 -3 10 4 6 11 -8 73 151 76 195 0 14 4 24
8 22 10 -6 70 184 62 197 -5 8 -3 9 6 4 10 -6 12 -3 8 13 -4 14 -2 20 5 15 6
-4 8 2 5 15 -4 12 -2 20 3 16 5 -3 9 -3 9 0 0 4 13 66 29 139 67 298 69 723 6
1047 -13 69 -40 221 -60 339 -27 157 -47 243 -76 324 -22 61 -44 116 -48 121
-5 6 -54 106 -110 222 -116 242 -163 374 -197 552 -13 69 -26 127 -29 130 -2
3 -7 -2 -11 -11z m-819 -1926 c26 -11 52 -18 59 -14 6 3 8 2 3 -2 -4 -5 0 -17
10 -27 18 -20 38 -25 27 -5 -5 8 -3 8 9 -2 9 -7 15 -17 12 -21 -3 -5 6 -25 19
-45 32 -46 42 -113 26 -168 -6 -23 -12 -50 -13 -59 -1 -9 -4 -15 -8 -13 -3 2
-21 -11 -39 -30 -94 -97 -294 -112 -414 -30 -21 14 -43 22 -49 19 -7 -4 -9 -4
-5 1 11 11 -12 36 -25 28 -5 -3 -7 -1 -3 5 3 6 -4 28 -16 49 -35 58 -32 155 4
210 35 53 86 92 151 115 68 24 184 19 252 -11z"/>
<path d="M6757 8476 c-53 -20 -67 -34 -67 -70 0 -58 64 -97 157 -97 133 0 170
101 58 159 -37 19 -108 23 -148 8z"/>
<path d="M8976 10498 c-30 -111 -67 -299 -60 -310 4 -7 3 -8 -4 -4 -13 8 -36
-69 -26 -87 4 -6 3 -9 -1 -4 -12 10 -87 -153 -80 -172 3 -9 3 -12 -1 -8 -10
10 -156 -273 -150 -290 3 -8 2 -11 -3 -8 -12 7 -24 -31 -15 -46 4 -7 3 -9 -3
-6 -12 8 -37 -69 -27 -85 5 -7 3 -8 -6 -3 -10 6 -12 3 -8 -13 4 -14 2 -20 -5
-15 -6 4 -8 -2 -5 -15 4 -12 2 -20 -2 -17 -4 3 -11 -19 -15 -47 -4 -29 -23
-136 -42 -238 -21 -114 -32 -197 -28 -218 41 -217 54 -606 31 -886 -24 -289
-23 -323 23 -462 21 -66 87 -249 146 -409 217 -587 262 -754 304 -1125 39
-347 51 -665 51 -1341 1 -626 2 -673 35 -859 20 -116 24 -132 35 -125 4 3 6
-3 4 -12 -6 -23 67 -213 97 -254 40 -54 97 -107 152 -142 157 -102 200 -159
211 -287 5 -54 16 -94 40 -145 36 -76 82 -138 97 -130 5 4 6 0 3 -8 -3 -8 2
-31 10 -52 9 -21 16 -65 16 -99 0 -56 28 -157 50 -180 10 -11 24 30 14 45 -4
8 -3 9 4 5 14 -8 26 35 20 69 -3 14 -1 22 5 18 6 -3 8 8 5 30 -2 20 0 33 5 30
6 -3 8 8 5 25 -2 17 -1 29 2 27 4 -3 19 17 33 43 14 26 39 62 56 81 34 37 56
93 47 117 -3 8 -2 13 3 10 14 -9 20 62 27 309 5 182 3 259 -10 370 -20 166
-56 336 -69 328 -6 -4 -7 -1 -3 6 10 16 -2 64 -13 56 -5 -3 -7 5 -3 17 4 16 2
19 -8 13 -9 -5 -11 -4 -6 4 4 6 -4 35 -17 64 -14 28 -32 72 -41 97 -24 67
-142 271 -151 262 -5 -4 -5 -1 -1 6 4 7 -21 81 -57 170 -93 225 -125 337 -167
583 -33 198 -43 367 -32 518 6 74 8 139 5 144 -4 6 -1 7 7 2 10 -6 12 -3 8 13
-4 12 -2 20 2 17 5 -3 11 14 15 37 7 42 102 237 132 270 8 9 12 22 7 29 -4 7
-3 10 3 6 10 -7 80 62 76 75 -2 4 0 7 5 6 4 -2 23 9 42 24 19 14 68 44 108 65
39 22 69 42 66 46 -3 3 4 3 17 0 15 -4 20 -3 15 5 -4 7 -2 10 7 6 7 -2 26 0
40 5 32 12 234 46 327 56 166 16 334 51 323 68 -4 6 -1 7 6 3 14 -9 64 1 57
12 -2 4 8 8 22 8 43 2 193 64 186 76 -4 7 -2 8 5 4 16 -10 53 3 45 16 -4 7 -2
8 5 4 16 -11 173 53 164 67 -3 6 -1 7 5 3 7 -4 44 5 83 19 145 52 581 154 662
155 5 0 5 4 2 10 -3 5 0 7 9 4 36 -14 142 80 133 117 -3 11 -2 17 2 14 11 -6
43 73 35 86 -5 8 -3 9 6 4 10 -6 12 -4 7 8 -3 9 -3 16 1 15 9 -2 198 184 195
193 -1 4 5 6 15 5 9 0 16 5 14 12 -1 8 2 11 7 8 15 -9 253 139 315 194 54 50
119 165 161 283 26 74 78 142 218 285 98 100 128 137 124 152 -3 11 0 18 7 17
6 -1 12 15 14 38 2 31 -4 51 -28 88 -18 26 -37 44 -42 40 -7 -3 -8 -1 -4 5 6
9 -78 152 -89 152 -3 0 -37 -9 -77 -20 -40 -10 -111 -25 -158 -31 -104 -15
-496 -16 -605 -1 -216 29 -385 65 -588 126 -120 37 -223 63 -229 60 -6 -4 -8
-2 -5 3 9 14 -107 58 -124 47 -7 -4 -10 -3 -6 3 8 12 -120 66 -135 57 -6 -4
-8 -3 -5 3 8 13 -109 67 -125 57 -6 -4 -8 -3 -5 3 8 13 -109 66 -126 57 -6 -4
-9 -3 -5 1 11 11 -150 98 -164 89 -6 -4 -8 -3 -5 3 8 13 -70 56 -85 47 -6 -4
-8 -3 -5 4 9 13 -139 95 -155 86 -6 -4 -8 -3 -5 3 8 13 -70 56 -85 47 -7 -4
-8 -3 -4 4 8 14 -90 66 -106 56 -7 -4 -8 -3 -4 4 4 7 -10 20 -36 33 -23 12
-59 33 -80 46 -20 14 -42 22 -48 18 -6 -3 -9 -2 -8 4 4 14 -292 212 -305 204
-6 -3 -7 -1 -3 5 8 13 -63 64 -77 55 -6 -3 -7 -1 -4 4 4 6 -23 36 -61 66 -37
31 -85 74 -106 96 -22 22 -44 37 -49 34 -6 -3 -7 -1 -4 4 4 6 -15 31 -41 55
-26 24 -66 70 -90 101 -25 33 -48 55 -54 51 -7 -4 -8 -2 -4 5 10 16 -71 124
-86 115 -7 -4 -8 -3 -4 4 8 13 -107 236 -117 226 -3 -3 -3 3 0 14 2 11 0 23
-6 26 -6 4 -16 -14 -25 -46z m1130 -1887 c28 -12 66 -38 84 -56 18 -19 36 -32
39 -30 4 2 7 -4 8 -13 1 -9 7 -36 13 -59 16 -55 6 -122 -26 -168 -13 -20 -22
-40 -19 -45 3 -4 -3 -14 -12 -21 -12 -10 -14 -10 -9 -1 11 19 -9 14 -27 -6
-10 -10 -14 -22 -10 -27 5 -4 3 -5 -3 -2 -7 4 -33 -2 -58 -14 -143 -63 -324
-17 -403 103 -37 56 -40 153 -5 211 12 21 19 44 16 50 -4 7 -4 9 1 5 4 -4 24
5 44 21 79 61 142 82 241 78 49 -3 92 -11 126 -26z"/>
<path d="M9955 8484 c-6 -1 -27 -5 -47 -9 -21 -3 -51 -17 -68 -32 -26 -21 -31
-32 -28 -61 10 -117 278 -94 278 25 0 24 -7 37 -25 49 -25 16 -91 33 -110 28z"/>
<path d="M6656 3349 c-3 -13 -19 -114 -36 -225 -26 -177 -30 -227 -30 -418 0
-249 14 -338 77 -483 32 -72 48 -95 106 -149 56 -52 82 -68 134 -84 81 -25
138 -27 129 -4 -3 8 -2 12 4 9 6 -3 10 3 10 15 0 12 -4 18 -10 15 -6 -3 -7 1
-4 9 5 14 -19 64 -130 267 -35 64 -76 210 -76 270 0 17 -4 28 -9 25 -5 -4 -7
2 -4 12 3 12 -12 38 -42 73 -26 30 -52 65 -60 79 -41 79 -70 357 -53 508 6 51
8 96 5 99 -3 3 -8 -5 -11 -18z"/>
<path d="M10127 3240 c6 -130 -5 -282 -28 -398 -10 -48 -55 -132 -80 -147 -5
-4 -6 -11 -3 -17 4 -7 2 -8 -5 -4 -18 11 -52 -76 -62 -158 -9 -70 -42 -177
-64 -206 -29 -39 -145 -281 -145 -304 0 -16 7 -29 17 -33 29 -11 137 18 194
53 171 106 249 314 249 665 0 153 -50 630 -71 669 -4 8 -5 -46 -2 -120z"/>
</g>
</svg>
