<?xml version="1.0" encoding="UTF-8" standalone="no"?>
<svg
   xmlns:dc="http://purl.org/dc/elements/1.1/"
   xmlns:cc="http://creativecommons.org/ns#"
   xmlns:rdf="http://www.w3.org/1999/02/22-rdf-syntax-ns#"
   xmlns:svg="http://www.w3.org/2000/svg"
   xmlns="http://www.w3.org/2000/svg"
   xmlns:sodipodi="http://sodipodi.sourceforge.net/DTD/sodipodi-0.dtd"
   xmlns:inkscape="http://www.inkscape.org/namespaces/inkscape"
   viewBox="0 -256 1850 1850"
   id="svg3001"
   version="1.1"
   inkscape:version="0.48.3.1 r9886"
   width="100%"
   height="100%"
   sodipodi:docname="exchange_font_awesome.svg">
  <metadata
     id="metadata3011">
    <rdf:RDF>
      <cc:Work
         rdf:about="">
        <dc:format>image/svg+xml</dc:format>
        <dc:type
           rdf:resource="http://purl.org/dc/dcmitype/StillImage" />
      </cc:Work>
    </rdf:RDF>
  </metadata>
  <defs
     id="defs3009" />
  <sodipodi:namedview
     pagecolor="#ffffff"
     bordercolor="#666666"
     borderopacity="1"
     objecttolerance="10"
     gridtolerance="10"
     guidetolerance="10"
     inkscape:pageopacity="0"
     inkscape:pageshadow="2"
     inkscape:window-width="640"
     inkscape:window-height="480"
     id="namedview3007"
     showgrid="false"
     inkscape:zoom="0.13169643"
     inkscape:cx="896"
     inkscape:cy="896"
     inkscape:window-x="0"
     inkscape:window-y="25"
     inkscape:window-maximized="0"
     inkscape:current-layer="svg3001" />
  <g
     transform="matrix(1,0,0,-1,37.966102,1259.8983)"
     id="g3003">
    <path
       d="M 1792,352 V 160 q 0,-13 -9.5,-22.5 Q 1773,128 1760,128 H 384 V -64 q 0,-13 -9.5,-22.5 Q 365,-96 352,-96 q -12,0 -24,10 L 9,234 q -9,9 -9,22 0,14 9,23 l 320,320 q 9,9 23,9 13,0 22.5,-9.5 Q 384,589 384,576 V 384 h 1376 q 13,0 22.5,-9.5 9.5,-9.5 9.5,-22.5 z m 0,544 q 0,-14 -9,-23 L 1463,553 q -9,-9 -23,-9 -13,0 -22.5,9.5 -9.5,9.5 -9.5,22.5 V 768 H 32 Q 19,768 9.5,777.5 0,787 0,800 v 192 q 0,13 9.5,22.5 9.5,9.5 22.5,9.5 h 1376 v 192 q 0,14 9,23 9,9 23,9 12,0 24,-10 l 319,-319 q 9,-9 9,-23 z"
       id="path3005"
       inkscape:connector-curvature="0"
       style="fill:currentColor" />
  </g>
</svg>
